<svg viewBox="0 0 34 33" height="33" width="34" xmlns="http://www.w3.org/2000/svg"><radialGradient id="a" cx="78.76%" cy="37.85%" gradientTransform="matrix(.7196 0 0 1 .22 0)" r="124.89%"><stop offset="0" stop-color="#f80090"/><stop offset="1" stop-color="#4d008e"/></radialGradient><radialGradient id="b" cx="68.74%" cy="4.4%" gradientTransform="matrix(.76096 0 0 1 .16 0)" r="107.4%"><stop offset="0" stop-color="#57008e"/><stop offset=".29" stop-color="#5c008e"/><stop offset="1" stop-color="#f80090"/></radialGradient><linearGradient id="c" x1="18.24%" x2="81.16%" y1="0%" y2="84.34%"><stop offset="0" stop-color="#f70090"/><stop offset=".67" stop-color="#e50090"/><stop offset=".83" stop-color="#d6008f" stop-opacity=".2"/><stop offset="1" stop-color="#c10090" stop-opacity="0"/></linearGradient><linearGradient id="d" x1="64.91%" x2="44.29%" y1="71.56%" y2="50%"><stop offset="0" stop-color="#b2008f" stop-opacity=".15"/><stop offset=".4" stop-color="#f70090" stop-opacity=".4"/><stop offset=".65" stop-color="#f60090" stop-opacity=".89"/><stop offset="1" stop-color="#ff0090"/></linearGradient><g fill="none" fill-rule="evenodd"><path d="M2.22 21C.47 11.66 5.08 2.68 15.65 1.5A4.8 4.8 0 0011.28.1c-1.62.52-1.56 1.58-3.4 2.94-1.82 1.04-2.74.24-4.07 1.33-1.32 1.08-.4 3.55-.95 4.03-.56.96-2.27 1.82-2.58 3.04-.26 1.55.7 2.66.66 4 .11 1.1-1.1 1.73-.92 2.63a6.5 6.5 0 002 2.77c.1.07.22.26.2.15z" fill="#ff0090"/><path d="M21.02 8.1a.7.7 0 01-.7-.71.7.7 0 111.4 0 .7.7 0 01-.7.7zM2.62 22C.95 13.92 6.13 7.15 16.16 10.48c5.9 3.47 13.3 3.24 13.63 1 .83-2.68-3.75-8.21-10.6-9.66C5.62-.85-1.7 13.91 2.62 22.01z" fill="url(#a)" fill-rule="nonzero"/><path d="M24.9 22.91a7.38 7.38 0 005.7-1.72c-2.68 3-6.03 4.52-9.87 4.93 1.83 1.57 3.6 2.28 5.3 1.97-4.71 1.31-8.65-.13-13.45-4.93-.25 1.3 1.11 3.3 2.5 4.6-8.11-3.55-8.82-14.58 1.08-17.3C5.89 5.52.09 15.15 2.94 23.05c2.8 6.09 10.23 10.77 18.38 9.74 3.95-.48 9.86-3.23 12.28-9.74-1.7 1.54-4.75 2.88-6.1 2.98 4.6-2.3 7.07-6.23 6.38-11.6a12.43 12.43 0 01-3.78 5.23c3.33-5.23 2.76-7.93.3-10.9 1.76 4.88-.53 10.3-5.5 14.16z" fill="url(#b)"/><path d="M22.54 28.54c-.35-.06.79.47-1.41-.12s-4.45-1.15-8.55-5.26c-.25 1.3 1.11 3.3 2.5 4.6 3.79 2.64 1.22 1.4 6.97 3.4a5.4 5.4 0 00.49-2.62z" fill="url(#c)"/><path d="M15.22 7.73s.5-.74.7-1.08c.23-.41.6-1.16.6-1.16s-3.85-1.26-4.8-1.42c-2.94.77-2.95 2-1.3 3.9.18.22 4.8-.24 4.8-.24z" fill="url(#d)"/></g></svg>